<svg xmlns="http://www.w3.org/2000/svg" viewBox="0 0 512 512">
  <!-- Icono PWA Matripuntos (Fase 1 PWA). Fondo = bg.page, corazón con
       degradado brand.purple → brand.amber + "punto" de puntos arriba. -->
  <defs>
    <linearGradient id="g" x1="0" y1="0" x2="1" y2="1">
      <stop offset="0" stop-color="#a855f7"/>
      <stop offset="1" stop-color="#f59e0b"/>
    </linearGradient>
  </defs>
  <rect width="512" height="512" rx="112" fill="#0f0a1e"/>
  <path fill="url(#g)" d="M256 416c-8 0-16-3-22-9l-96-90c-29-27-46-58-46-93 0-51 41-92 92-92 28 0 54 13 72 33 18-20 44-33 72-33 51 0 92 41 92 92 0 35-17 66-46 93l-96 90c-6 6-14 9-22 9z"/>
  <circle cx="256" cy="120" r="26" fill="#f59e0b"/>
</svg>
